# xmcd CD database file
#
# Track frame offsets:
#	150
#	12850
#	25572
#	38170
#	50692
#	64052
#	73622
#	84247
#	98510
#	109637
#	122602
#	135457
#
# Disc length: 1938 seconds
#
# Revision: 3
# Processed by: cddbd v1.5.2PL0 Copyright (c) Steve Scherf et al.
# Submitted via: CDex 1.51
#
DISCID=8c07900c
DTITLE=James Brown and The Famous Flames - The Amazing James Brown
DYEAR=1995
DGENRE=Funk
TTITLE0=Just You And Me, Darling
TTITLE1=I Love You, Yes I Do
TTITLE2=I Don't Mind
TTITLE3=Come Over Here
TTITLE4=The Bells
TTITLE5=Love Don't Love Nobody
TTITLE6=Dancin' Little Thing
TTITLE7=Lost Someone
TTITLE8=And I Do Just What I Want
TTITLE9=So Long
TTITLE10=You Don't Have To Go
TTITLE11=Tell Me What Your Gonna Do
EXTD=YEAR: 1995
EXTT0=
EXTT1=
EXTT2=
EXTT3=
EXTT4=
EXTT5=
EXTT6=
EXTT7=
EXTT8=
EXTT9=
EXTT10=
EXTT11=
PLAYORDER=
